<svg version="1.1" id="Layer_1" xmlns="http://www.w3.org/2000/svg" xmlns:xlink="http://www.w3.org/1999/xlink" x="0px" y="0px"
	 width="100%" viewBox="0 0 496 496" enable-background="new 0 0 496 496" xml:space="preserve">
<path fill="#000000" opacity="1.000000" stroke="none" 
	d="
M380.063660,221.866699 
	C387.891449,229.407852 391.912689,238.190643 392.407928,249.224060 
	C389.274567,248.162888 388.894226,245.986710 388.052429,244.309738 
	C385.580109,239.384781 382.831909,234.637833 379.614380,230.168945 
	C373.280396,221.371506 364.850739,219.672897 355.656433,225.409348 
	C345.087372,232.003510 340.510895,242.771957 336.263489,253.701187 
	C330.352386,268.911346 325.941742,284.611603 321.298187,300.233002 
	C314.873505,321.846405 301.506104,337.887329 281.466034,347.860413 
	C261.922546,357.586365 243.659668,352.319336 226.227753,341.377136 
	C213.346451,333.291382 204.233261,321.695679 195.732361,309.468323 
	C192.073441,304.205475 188.383163,298.964447 184.207306,292.999542 
	C187.953888,292.836517 188.955826,294.949341 190.208725,296.493378 
	C198.387024,306.572174 206.166809,316.984161 216.251068,325.367889 
	C224.411667,332.152344 233.503693,337.193726 243.340103,341.073761 
	C258.261749,346.959747 271.972015,344.523956 284.955322,335.624664 
	C298.353577,326.440887 307.584625,314.148651 312.638214,298.774231 
	C316.065002,288.348999 319.335266,277.866364 322.398376,267.328888 
	C326.865448,251.961517 334.993378,238.779739 345.786865,227.141357 
	C348.739410,223.957703 352.088165,221.218369 356.054535,219.300888 
	C364.453857,215.240402 372.412292,215.390564 380.063660,221.866699 
z"/>
<path fill="#000000" opacity="1.000000" stroke="none" 
	d="
M233.707260,244.249786 
	C235.828217,246.569382 240.105240,248.393356 237.583252,251.471558 
	C235.434555,254.094131 232.513062,250.736679 230.277039,249.305145 
	C227.058319,247.244461 224.046265,244.859329 220.960327,242.593155 
	C202.841721,229.287659 183.192551,229.147141 162.456970,235.068100 
	C149.130508,238.873398 138.837692,246.034943 131.335861,258.878174 
	C150.889221,261.529907 170.036591,260.833374 189.162155,260.702637 
	C208.132324,260.572968 226.721527,255.841980 246.276398,254.741409 
	C244.975891,260.333954 241.469391,261.308258 238.144516,261.882263 
	C228.654968,263.520538 219.117905,264.898010 209.576279,266.208923 
	C207.445908,266.501648 205.634201,266.882507 204.705368,268.995880 
	C195.188553,290.649719 170.889420,288.037933 157.416061,270.374847 
	C154.718369,266.838257 151.773560,265.660004 147.861069,265.377289 
	C136.538193,264.559143 125.523270,262.112030 114.656960,258.955841 
	C113.038811,258.485809 110.900101,258.235046 110.809311,255.303329 
	C114.715240,254.268463 118.159561,256.161255 121.554901,257.311005 
	C125.241875,258.559509 127.413094,258.375519 129.402328,254.379639 
	C136.989365,239.139069 151.131012,232.853851 166.475082,228.991333 
	C191.193436,222.769089 213.609467,227.897079 233.707260,244.249786 
M179.375824,266.900909 
	C172.700607,266.900909 166.025391,266.900909 158.474319,266.900909 
	C170.772354,282.928253 191.046753,282.694519 200.658630,267.287567 
	C193.807968,265.454926 187.038193,267.042633 179.375824,266.900909 
z"/>
<path fill="#000000" opacity="1.000000" stroke="none" 
	d="
M288.956665,249.296448 
	C294.961243,251.638290 300.855682,250.357559 306.637848,250.621567 
	C309.740997,250.763260 312.660522,250.893784 314.402679,254.010086 
	C316.184235,257.196869 314.772552,259.742523 312.864075,262.236786 
	C311.549225,263.955170 310.405853,265.813721 309.005981,267.456329 
	C305.041107,272.108856 301.192841,272.946716 296.390411,269.301483 
	C290.122040,264.543518 283.458679,262.078766 275.550415,262.952820 
	C273.621155,263.166046 271.578186,262.652618 269.625702,262.275482 
	C267.322205,261.830566 265.397034,260.373077 265.082672,258.130035 
	C264.318329,252.676651 267.394562,248.547928 270.909515,244.982590 
	C274.045013,241.802124 277.835236,242.273788 281.446625,244.547806 
	C283.842773,246.056625 286.220978,247.593964 288.956665,249.296448 
z"/>
<path fill="#000000" opacity="1.000000" stroke="none" 
	d="
M345.062744,130.660309 
	C353.178040,134.644943 360.659821,135.011627 368.002106,129.661789 
	C371.531647,127.090065 371.760681,124.229843 369.115509,121.234894 
	C365.529724,117.174965 361.116089,115.005157 355.389221,116.005699 
	C351.085938,116.757530 347.130554,118.524078 342.962067,119.606346 
	C336.699951,121.232178 330.655457,121.031242 325.963470,115.769783 
	C323.530609,113.041672 322.918243,109.817390 325.144836,106.608665 
	C326.870941,104.121185 328.883728,101.940231 332.301819,103.279579 
	C332.919312,105.149124 331.733734,105.653252 330.801849,106.299446 
	C329.120636,107.465279 327.352112,108.779205 327.947052,111.067902 
	C328.574860,113.483055 330.511627,114.967110 332.915283,115.511421 
	C336.081207,116.228363 339.149963,115.485176 342.250885,114.688591 
	C349.614075,112.797089 356.627563,109.347580 364.497223,109.655746 
	C370.348358,109.884880 375.148407,112.125198 378.541168,116.968361 
	C383.376892,123.871414 382.201477,131.267761 375.330994,136.194321 
	C365.705414,143.096527 355.317200,144.476486 344.889832,138.553314 
	C338.244080,134.778244 331.964325,132.523392 324.737640,136.437546 
	C324.415955,136.611786 323.836487,136.310059 323.335022,136.222687 
	C327.234344,129.289902 334.231171,127.463890 345.062744,130.660309 
z"/>
<path fill="#000000" opacity="1.000000" stroke="none" 
	d="
M297.712524,176.932281 
	C293.488770,177.502289 289.701630,177.961395 285.626770,178.455383 
	C285.019379,180.597672 285.735687,183.897919 282.164459,183.907974 
	C279.907318,183.914337 277.289490,184.130371 275.882355,181.867462 
	C274.810883,180.144394 276.312561,178.891495 278.076752,177.942245 
	C274.930878,176.569183 272.256805,175.516968 270.360352,173.339874 
	C267.394897,169.935547 265.773560,166.734528 268.244568,161.742249 
	C271.947693,154.260620 276.627930,147.395233 280.529358,140.061111 
	C286.130188,129.532333 291.245758,118.945229 289.028137,106.456459 
	C288.956512,106.053032 289.341522,105.568497 289.536072,105.063576 
	C297.938660,116.409050 290.229462,145.722824 271.816803,166.203979 
	C274.128296,170.420059 277.874390,172.278900 282.498413,171.811707 
	C288.272736,171.228271 294.021790,170.271271 299.732178,169.209000 
	C307.424469,167.778030 314.309631,168.655457 319.680145,175.038757 
	C320.641693,176.181656 321.793762,177.210205 323.323212,177.550781 
	C325.547455,178.046066 327.182007,178.994492 326.327087,181.629105 
	C325.541443,184.050186 323.556702,184.856491 321.215149,184.714600 
	C319.312378,184.599289 317.509003,183.687820 316.464325,182.220093 
	C311.725128,175.561981 305.195679,175.411743 297.712524,176.932281 
z"/>
<path fill="#000000" opacity="1.000000" stroke="none" 
	d="
M280.426270,65.540146 
	C289.708527,55.757759 302.584503,55.569214 314.274597,64.911911 
	C322.163513,71.216682 327.584381,79.745018 333.999329,87.370705 
	C339.294861,93.665665 343.766205,100.822632 352.192749,103.864906 
	C345.013336,104.615250 338.933533,102.525688 334.071075,97.310509 
	C326.245819,88.917603 319.393829,79.634804 310.854584,71.891899 
	C307.140656,68.524338 303.399475,65.158920 298.190643,64.351540 
	C285.575867,62.396214 276.500763,73.474892 279.703339,86.920433 
	C280.633606,90.826065 282.266632,94.462509 284.196503,97.981239 
	C285.114197,99.654480 286.200256,101.346466 285.981201,103.643600 
	C275.871063,97.998672 272.936707,77.602440 280.426270,65.540146 
z"/>
<path fill="#000000" opacity="1.000000" stroke="none" 
	d="
M245.392365,372.214355 
	C240.478653,379.863129 240.542847,388.103485 240.291550,396.480103 
	C243.658661,395.758270 246.294830,390.783264 249.308304,394.862854 
	C252.005112,398.513733 247.705536,400.615417 245.826477,403.115540 
	C245.342682,403.759247 244.916016,404.445892 244.392868,405.216248 
	C247.256409,409.007446 250.221939,411.847565 255.548019,409.014465 
	C252.633652,414.838593 250.174698,415.092285 241.330032,410.978027 
	C239.650024,411.940155 240.352402,413.617340 240.240921,414.994934 
	C240.044250,417.425720 240.762878,420.563507 237.316757,420.971802 
	C233.949097,421.370789 235.577988,417.604126 234.169296,416.215393 
	C227.173874,415.945740 225.915176,414.725342 225.697784,407.671753 
	C225.609894,404.820099 225.132095,402.068268 224.250229,398.999786 
	C217.823547,402.042450 221.599976,410.803345 215.539307,414.330719 
	C211.515015,408.796265 216.688553,400.788208 209.996536,396.568665 
	C210.883453,394.266449 212.616730,392.765442 214.893524,393.154724 
	C217.575745,393.613373 216.911392,396.608154 217.899277,398.735229 
	C220.046463,398.343231 220.811157,396.235901 222.311386,395.137054 
	C225.737823,392.627350 228.235092,393.418091 229.299698,397.497437 
	C230.016281,400.243256 230.378143,403.037689 230.361328,405.898010 
	C230.346725,408.380096 230.574112,410.866638 233.135345,412.105042 
	C235.095825,411.293823 234.586044,409.785828 234.642929,408.542725 
	C235.030502,400.073212 235.307861,391.587830 236.733139,383.214142 
	C237.695328,377.561096 239.221542,372.103424 244.589951,368.795532 
	C247.936569,366.733398 250.007309,366.654297 253.175385,368.532837 
	C252.021133,372.649231 247.962570,370.405121 245.392365,372.214355 
M241.502823,401.424927 
	C241.254456,402.147217 241.006088,402.869507 240.757721,403.591827 
	C242.478683,401.871460 245.939972,401.369202 245.071762,397.692963 
	C243.093918,398.225525 242.499573,399.623596 241.502823,401.424927 
z"/>
<path fill="#000000" opacity="1.000000" stroke="none" 
	d="
M299.498718,369.183746 
	C305.110168,371.645416 310.549438,373.940186 311.216217,380.646576 
	C311.969269,388.221039 308.136505,393.659912 302.257141,397.906097 
	C300.927032,398.866669 299.527832,399.731537 297.807617,400.875061 
	C303.750305,406.980743 305.508728,414.888916 308.535858,422.194153 
	C310.709045,427.438782 312.790283,432.890900 321.133209,430.269073 
	C316.216370,435.926208 309.028992,434.848724 305.956146,428.729828 
	C303.576233,423.990784 301.909454,418.898163 299.816162,414.009613 
	C296.296173,405.788971 295.632141,405.269928 287.396240,403.549286 
	C287.673981,400.504547 290.135406,400.235565 292.282898,399.725922 
	C297.410217,398.509216 301.348694,395.682983 304.070374,391.194122 
	C308.769012,383.444672 307.006256,377.631561 298.826721,373.753906 
	C289.124176,369.154205 276.485168,374.387543 272.866058,384.503235 
	C271.035492,389.619812 272.314514,392.746674 278.108185,397.008484 
	C277.469025,400.197205 275.412872,400.192657 272.955139,399.221069 
	C268.157471,397.324463 266.128876,391.545380 268.331696,385.567627 
	C272.571991,374.060791 288.570862,365.513885 299.498718,369.183746 
z"/>
<path fill="#000000" opacity="1.000000" stroke="none" 
	d="
M265.902588,214.924530 
	C263.995544,217.234375 262.461182,219.421616 260.721283,221.430862 
	C257.275330,225.410141 253.729156,226.172867 250.786118,223.733307 
	C247.414719,220.938644 247.268951,216.459824 250.431976,212.302094 
	C252.718964,212.690582 252.719391,215.509552 255.006973,216.451248 
	C259.078186,214.868683 260.541351,208.582779 265.799042,208.909195 
	C271.665802,209.273438 272.594421,214.412796 273.983856,219.473206 
	C284.137939,214.390762 291.987091,218.483246 299.194183,225.445984 
	C304.252167,230.332489 310.015869,232.578247 316.902557,229.148651 
	C317.669830,228.766571 318.513489,228.799973 319.717957,229.669495 
	C320.450714,232.686874 318.312592,234.582382 316.000610,236.120728 
	C309.694244,240.316895 303.367035,239.321915 297.223877,235.676559 
	C292.350220,232.784531 288.874359,228.572998 286.501831,223.467422 
	C284.890564,220.000015 282.588318,218.673996 278.923645,220.504395 
	C274.814636,222.556702 271.669739,222.243179 270.240356,217.098923 
	C269.742584,215.307449 268.615570,213.659042 265.902588,214.924530 
z"/>
<path fill="#000000" opacity="1.000000" stroke="none" 
	d="
M100.442802,403.684265 
	C105.376137,412.715485 104.594887,416.003540 96.316948,421.795898 
	C92.628540,424.376770 88.973427,426.836243 84.030769,426.440338 
	C78.340340,425.984528 73.756973,422.267242 73.751602,417.560455 
	C73.746300,412.910461 78.725662,407.764496 83.802200,407.189056 
	C84.061211,408.661072 82.821777,409.171112 82.007179,409.905975 
	C79.510155,412.158478 77.550972,414.686249 79.473831,418.127289 
	C81.353455,421.490967 84.554749,422.987244 88.322868,422.451355 
	C97.129211,421.198975 100.681122,414.066498 96.147644,406.481445 
	C92.653687,400.635529 88.744415,395.033813 84.923035,389.389038 
	C82.137268,385.273987 79.516563,381.005066 82.144348,376.016998 
	C84.736862,371.095917 89.551506,368.937775 94.789116,368.041412 
	C98.693123,367.373291 103.355911,370.934662 104.185204,374.729401 
	C104.990578,378.414703 102.827621,381.689484 98.590485,383.177521 
	C97.507385,382.265259 98.177505,381.409698 98.703308,380.574127 
	C100.362381,377.937622 100.256477,375.374878 97.756470,373.479248 
	C94.718857,371.175995 91.363457,371.784790 88.404701,373.680298 
	C85.980347,375.233429 84.881889,377.669342 85.944801,380.602478 
	C87.668190,385.358185 91.001724,389.174316 93.607117,393.412933 
	C95.694923,396.809509 98.028755,400.054871 100.442802,403.684265 
z"/>
<path fill="#000000" opacity="1.000000" stroke="none" 
	d="
M145.187439,397.321411 
	C145.221191,401.009521 144.713058,404.337006 146.228867,407.266693 
	C149.521530,407.842102 149.828110,404.047974 152.314484,403.960144 
	C153.099579,404.256012 153.198013,404.898254 152.943954,405.542755 
	C152.180222,407.480164 152.260117,409.203491 154.299927,410.228455 
	C155.726318,410.945190 157.257523,410.868195 158.471786,409.690643 
	C160.238266,407.977539 159.827087,406.045654 158.672729,404.242981 
	C156.701889,401.165283 154.564774,398.194000 152.597610,395.114075 
	C151.044098,392.681732 149.667053,390.099792 151.662827,387.266876 
	C153.711411,384.358978 156.669174,382.937073 160.168701,382.804810 
	C162.195480,382.728210 163.758896,383.727570 164.161804,385.827545 
	C164.639267,388.316071 163.526764,389.959045 161.020706,390.763794 
	C159.237717,390.001923 159.240921,385.777191 155.409195,388.287048 
	C156.714691,392.323700 159.700638,395.469208 161.936371,399.016541 
	C165.822372,405.182312 164.721466,410.036926 158.429535,413.637360 
	C156.245575,414.887054 153.184494,416.430603 151.517426,414.303558 
	C148.486526,410.436279 139.953522,413.549042 140.617783,405.460815 
	C140.641464,405.172424 140.404755,404.862610 140.245789,404.449432 
	C138.145325,404.914520 137.223282,406.905273 135.645691,408.013489 
	C134.346146,408.926361 133.066574,409.573456 131.498444,408.905670 
	C129.864624,408.209991 129.619568,406.764343 129.557007,405.190094 
	C129.297363,398.655579 136.318649,392.270599 142.146576,393.680054 
	C143.955658,394.117584 145.292816,394.742462 145.187439,397.321411 
M138.847031,399.914978 
	C139.398514,398.212708 138.652786,396.863312 137.079712,397.805847 
	C134.870682,399.129456 133.587814,401.364044 135.084793,404.236267 
	C137.121902,403.450012 137.700378,401.826233 138.847031,399.914978 
z"/>
<path fill="#000000" opacity="1.000000" stroke="none" 
	d="
M167.759201,404.660919 
	C167.647552,395.004578 168.906494,385.976410 171.916077,377.283203 
	C173.937225,371.445068 177.285873,366.585083 183.692780,364.676056 
	C185.875656,364.025574 187.913086,363.738586 189.762619,365.613251 
	C189.780960,368.169006 187.968674,368.652405 186.079636,368.310425 
	C181.003525,367.391449 178.779373,370.554291 177.030075,374.362335 
	C174.002899,380.952057 173.244415,388.050842 172.522507,395.477264 
	C173.920441,394.183350 175.100922,393.023163 176.352127,391.945038 
	C180.336868,388.511597 182.817032,389.166992 184.236893,394.145325 
	C185.784378,399.571106 187.046600,405.079895 188.658035,410.485413 
	C190.365601,416.213348 192.591858,417.577545 198.369186,416.952271 
	C196.742188,419.520386 194.918121,420.421387 191.853378,420.386841 
	C188.548676,420.349579 186.669754,418.353851 185.396774,415.686951 
	C183.165970,411.013336 182.136078,405.936218 180.714355,400.992188 
	C180.131271,398.964478 180.068222,396.719849 178.419037,395.076263 
	C172.428833,398.379852 175.850922,407.308105 169.622330,410.487000 
	C167.521286,408.823395 167.957535,406.874725 167.759201,404.660919 
z"/>
<path fill="#000000" opacity="1.000000" stroke="none" 
	d="
M126.197220,404.017822 
	C126.727455,406.185516 127.098900,407.979034 127.650398,409.715363 
	C129.738586,416.289581 131.247604,417.385345 137.688019,417.173401 
	C133.480301,421.945557 127.700226,421.584412 124.894547,416.163116 
	C122.279419,411.109985 121.174072,405.503998 119.743462,400.039948 
	C119.285698,398.291595 119.001762,396.528412 117.895294,394.933105 
	C111.988701,398.518829 114.495575,406.900177 108.698746,410.931580 
	C105.688553,404.543610 107.175621,398.709290 107.763451,393.047882 
	C108.605545,384.937500 109.968109,376.869720 115.102264,370.064056 
	C119.024475,364.864929 124.568123,363.113098 129.171097,365.729614 
	C129.172867,368.377716 127.263100,368.703278 125.413948,368.338409 
	C120.335793,367.336304 118.112175,370.448639 116.320335,374.278137 
	C113.177658,380.994659 112.334473,388.185913 111.852051,395.861267 
	C114.572540,393.247009 116.524529,389.218567 120.324478,390.073914 
	C124.494858,391.012634 123.388878,395.782532 124.610916,398.861908 
	C125.222893,400.403992 125.624413,402.029602 126.197220,404.017822 
z"/>
<path fill="#000000" opacity="1.000000" stroke="none" 
	d="
M279.192749,415.020935 
	C279.137054,417.367340 277.996979,418.369690 276.264526,418.906891 
	C274.251251,418.310608 274.257599,413.633606 271.059387,416.114014 
	C268.611664,418.012390 269.186646,420.612823 270.941986,422.746948 
	C273.286438,425.597443 276.358307,425.576965 278.835358,423.305054 
	C282.571747,419.878143 283.107727,415.286774 282.338776,410.416168 
	C281.329254,404.021973 280.482086,397.641174 281.654663,391.115845 
	C282.832001,384.564087 289.399506,378.859558 295.438538,379.658203 
	C295.876068,381.943420 294.038818,382.629395 292.588837,382.976318 
	C287.972961,384.080627 286.677399,387.526276 286.355499,391.517578 
	C285.914703,396.984070 285.907593,402.449524 286.905060,407.908905 
	C288.700562,417.736389 285.490326,423.705475 276.595337,428.176575 
	C273.108246,429.929413 270.028961,429.357758 267.404388,426.932800 
	C264.564545,424.308960 263.921875,420.938232 265.741455,417.376953 
	C267.488495,413.957581 270.090576,411.412628 274.035461,410.915070 
	C276.673218,410.582397 278.447388,412.014862 279.192749,415.020935 
z"/>
<path fill="#000000" opacity="1.000000" stroke="none" 
	d="
M367.306824,413.796814 
	C366.459259,423.497162 358.609863,431.054138 351.643982,429.316040 
	C351.724121,429.006989 351.723114,428.504364 351.909973,428.420563 
	C361.485535,424.125549 363.114990,421.256500 362.155823,410.788727 
	C361.641083,405.170990 361.256378,399.539337 360.932373,393.907043 
	C360.784210,391.331268 360.508331,388.987274 357.110413,388.569519 
	C361.810486,384.158508 363.343933,384.237335 366.118073,388.727264 
	C366.546997,388.553131 367.000122,388.392853 367.433044,388.189636 
	C370.757446,386.628998 374.214233,383.468353 377.540344,387.737976 
	C380.001617,390.897430 378.153412,398.893860 374.851013,401.325562 
	C374.450775,401.620270 374.040619,402.007141 373.583160,402.102661 
	C367.153015,403.444855 366.588806,408.030579 367.306824,413.796814 
M366.398193,398.158234 
	C367.526001,401.669434 370.022003,401.521667 372.016663,399.531555 
	C374.090149,397.462738 374.001953,394.392487 373.377441,391.569702 
	C373.159790,390.585876 372.347412,389.588287 371.308350,389.763672 
	C368.472260,390.242401 367.675598,392.826721 366.584290,394.977692 
	C366.241730,395.652863 366.412872,396.588654 366.398193,398.158234 
z"/>
<path fill="#000000" opacity="1.000000" stroke="none" 
	d="
M182.409500,207.446198 
	C175.982986,197.720428 177.370041,187.465805 179.081802,177.230377 
	C179.655106,173.802322 180.565063,170.406830 181.605087,167.085358 
	C184.062943,159.235809 184.999008,151.492462 180.989334,143.823883 
	C180.754059,143.373947 181.074036,142.633698 181.173965,141.652008 
	C184.066971,143.134583 184.461868,145.705200 185.202591,147.957855 
	C188.170792,156.984726 186.597656,165.915619 184.874237,174.954407 
	C183.423431,182.563385 181.524765,190.201431 183.273331,198.135071 
	C184.204590,202.360550 186.421707,206.069962 187.771515,210.481125 
	C185.116699,210.760849 183.874619,209.250626 182.409500,207.446198 
z"/>
<path fill="#000000" opacity="1.000000" stroke="none" 
	d="
M335.412689,143.618637 
	C336.229553,142.124176 336.779083,140.893433 337.585480,139.863892 
	C338.686920,138.457611 340.163544,137.578217 341.887939,138.798584 
	C343.388794,139.860764 343.110596,141.280441 342.366180,142.782578 
	C338.277863,151.032104 337.955994,160.012955 337.296295,168.941666 
	C337.055603,172.199127 338.257446,177.508270 333.761261,177.378723 
	C329.312195,177.250519 330.750275,171.961807 330.627014,168.701645 
	C330.303009,160.130981 332.091400,151.911423 335.412689,143.618637 
z"/>
<path fill="#000000" opacity="1.000000" stroke="none" 
	d="
M417.741180,382.813660 
	C422.764740,385.890198 422.671936,388.110352 417.713043,390.764923 
	C416.234009,389.781860 416.419281,386.125610 412.718628,387.977173 
	C413.337646,392.311737 416.669922,395.234436 418.861511,398.744659 
	C423.049286,405.452209 421.165558,411.281006 413.860596,414.336975 
	C410.709137,415.655365 407.637787,415.512756 406.201447,412.218628 
	C404.803192,409.011902 405.344666,405.796112 409.157654,404.170380 
	C410.396484,405.217590 409.425201,406.201294 409.524017,407.115173 
	C409.816376,409.818726 411.494415,410.975128 413.991425,410.455505 
	C416.408173,409.952545 417.079376,408.000092 416.404541,405.815125 
	C415.408203,402.589264 413.187256,400.039551 411.235291,397.364349 
	C405.273254,389.193146 407.187378,384.601044 417.741180,382.813660 
z"/>
<path fill="#000000" opacity="1.000000" stroke="none" 
	d="
M326.482117,404.677551 
	C325.515381,406.515259 324.173462,407.470490 322.712524,408.304138 
	C317.851349,411.077911 313.580627,410.762177 310.989136,407.424683 
	C308.081024,403.679413 308.528381,397.675354 312.218903,394.220886 
	C315.067505,391.554474 318.359406,389.435730 322.507812,390.839386 
	C324.368286,391.468903 325.529846,393.371002 324.955963,395.271240 
	C323.749634,399.265778 320.262146,400.540070 316.572052,401.343018 
	C316.097168,401.446320 315.634705,401.607025 315.168976,401.740417 
	C316.418640,406.744904 319.145630,407.730804 323.034515,404.656769 
	C324.665283,403.367706 324.665314,403.367737 326.482117,404.677551 
z"/>
<path fill="#000000" opacity="1.000000" stroke="none" 
	d="
M393.771851,391.463013 
	C396.182068,397.062012 393.671143,399.938812 385.243591,401.818420 
	C386.753387,406.969971 387.956238,407.127838 396.222717,403.259155 
	C395.817657,406.822357 392.219666,409.866730 387.782501,410.192474 
	C383.993530,410.470642 381.270416,408.684357 380.161560,405.105713 
	C378.970337,401.261353 379.275452,397.308594 382.321136,394.432434 
	C385.352448,391.569855 388.861298,389.140137 393.771851,391.463013 
z"/>
<path fill="#000000" opacity="1.000000" stroke="none" 
	d="
M173.758453,156.338638 
	C173.794327,154.775208 173.581497,153.588531 174.947327,152.080124 
	C177.075333,155.635269 177.474319,159.231705 177.250137,162.904770 
	C177.109558,165.208038 177.040421,167.717758 176.088348,169.732834 
	C172.772552,176.750748 172.037338,183.936203 173.235107,191.537857 
	C173.624786,194.010925 173.878204,196.862854 171.139008,199.401062 
	C167.288254,191.368561 164.334549,183.619049 169.147446,175.247070 
	C172.463791,169.478287 174.634888,163.537399 173.758453,156.338638 
z"/>
<path fill="#000000" opacity="1.000000" stroke="none" 
	d="
M199.164642,405.722351 
	C197.775925,406.881042 196.722565,408.027893 195.421936,408.686188 
	C193.325272,409.747406 191.518951,409.304047 190.694412,406.829102 
	C188.898529,401.438660 195.795609,392.834137 201.463257,393.365997 
	C204.675400,393.667480 206.532730,394.726868 206.253296,398.650299 
	C205.998383,402.229309 204.932281,406.502808 209.552444,408.715637 
	C208.803818,411.028412 207.288254,412.161621 205.064163,411.794922 
	C202.924698,411.442169 202.723785,409.294342 201.813614,407.752167 
	C201.312698,406.903442 203.338562,402.686737 199.164642,405.722351 
M198.946884,401.515656 
	C199.507034,400.292175 200.962906,399.184998 199.255646,397.452698 
	C195.861084,398.336029 195.207703,400.650299 195.653320,403.743378 
	C197.376389,404.003387 197.959427,402.958527 198.946884,401.515656 
z"/>
<path fill="#000000" opacity="1.000000" stroke="none" 
	d="
M274.722290,287.874512 
	C273.109833,282.140259 274.765686,278.585938 279.266418,277.380280 
	C283.213776,276.322876 287.070068,278.580719 288.100983,282.552948 
	C289.169434,286.669708 286.691498,290.745209 282.529175,291.620605 
	C279.198608,292.321075 276.752411,290.918457 274.722290,287.874512 
z"/>
<path fill="#000000" opacity="1.000000" stroke="none" 
	d="
M334.742554,394.289795 
	C332.443298,397.480133 332.580597,400.550812 334.653564,403.307343 
	C337.202484,406.696838 340.673065,406.013519 344.649384,403.982117 
	C343.824524,408.132935 341.256805,408.833008 338.734100,409.173859 
	C335.067017,409.669342 331.754761,408.790039 329.597778,405.428467 
	C327.386810,401.982727 327.454987,398.318939 329.652679,395.077148 
	C331.856445,391.826294 335.019135,389.626465 339.264801,389.749939 
	C340.842621,389.795776 342.162292,390.431824 343.143890,391.695068 
	C344.552856,393.508301 344.137604,395.206207 342.507172,396.501526 
	C340.990967,397.706146 339.549652,397.879852 338.663544,395.528656 
	C338.058289,393.922516 336.715118,393.342285 334.742554,394.289795 
z"/>
<path fill="#000000" opacity="1.000000" stroke="none" 
	d="
M190.284088,173.545776 
	C192.086258,170.944107 193.631790,168.603058 196.661331,168.025894 
	C198.251678,170.335846 197.291016,172.128632 196.126343,173.741379 
	C191.696289,179.875793 191.642014,186.293747 194.431107,193.084854 
	C195.687012,196.142822 196.549149,199.365906 197.526169,202.533737 
	C198.113815,204.439148 198.391846,206.348877 196.314774,208.567947 
	C195.263519,201.181427 191.479385,195.475006 189.210770,189.161102 
	C187.289108,183.812836 187.125626,178.815155 190.284088,173.545776 
z"/>
<path fill="#000000" opacity="1.000000" stroke="none" 
	d="
M359.382263,85.765648 
	C363.276398,92.052582 365.584595,98.326241 364.241821,106.920303 
	C360.004089,100.303856 359.676392,93.633064 356.051605,88.429413 
	C352.236877,82.953026 346.571594,80.395615 340.096039,78.658829 
	C347.344513,75.683640 352.661438,77.662315 359.382263,85.765648 
z"/>
<path fill="#000000" opacity="1.000000" stroke="none" 
	d="
M177.318329,221.694611 
	C175.882416,220.038925 175.528595,218.435745 175.730881,216.734879 
	C176.196442,212.820160 178.568954,210.756271 182.390533,210.768204 
	C186.173157,210.780060 188.175323,213.119904 188.252228,216.787384 
	C188.334595,220.715622 186.179153,222.917221 182.258209,223.304474 
	C180.554993,223.472717 178.948334,223.186035 177.318329,221.694611 
z"/>
<path fill="#000000" opacity="1.000000" stroke="none" 
	d="
M308.092621,183.903366 
	C308.809906,184.389999 309.253387,184.613525 309.663116,184.887512 
	C311.373260,186.031021 314.202393,186.887543 312.831940,189.559555 
	C311.333099,192.481796 309.105438,190.027344 307.297333,189.402313 
	C304.965759,188.596329 302.730438,187.513153 300.449127,186.560165 
	C298.412262,185.709290 296.120026,184.781647 297.000671,182.038361 
	C297.916504,179.185486 300.599823,179.665100 302.884766,179.813049 
	C305.362915,179.973511 306.226349,182.295837 308.092621,183.903366 
z"/>
<path fill="#000000" opacity="1.000000" stroke="none" 
	d="
M263.603821,308.170410 
	C262.454254,304.242035 263.948700,301.868927 267.310974,300.942322 
	C270.255463,300.130890 272.495026,301.472656 273.681671,304.345642 
	C274.727325,306.877289 273.997620,309.137421 271.828949,310.454803 
	C268.709656,312.349670 265.781006,311.899536 263.603821,308.170410 
z"/>
<path fill="#000000" opacity="1.000000" stroke="none" 
	d="
M350.487946,410.145142 
	C349.314270,407.581909 349.758087,405.243256 349.709991,402.950958 
	C349.655273,400.342712 350.110199,397.608215 347.098114,396.292908 
	C348.235840,393.596558 350.227966,393.432861 352.207397,393.850830 
	C354.584839,394.352844 354.009583,396.595154 354.484039,398.271423 
	C355.488525,401.820221 353.099487,406.009308 357.011566,409.088104 
	C354.993774,411.094116 353.179749,412.023987 350.487946,410.145142 
z"/>
<path fill="#000000" opacity="1.000000" stroke="none" 
	d="
M335.963440,189.808701 
	C339.599365,195.714478 338.356323,200.195312 332.179169,204.163666 
	C332.021484,200.668442 334.858002,197.849075 334.018768,194.488174 
	C332.799805,189.606522 329.539886,191.547424 326.404846,192.440506 
	C328.568176,188.093079 331.845673,188.031128 335.963440,189.808701 
z"/>
<path fill="#000000" opacity="1.000000" stroke="none" 
	d="
M404.294647,381.922485 
	C404.067841,386.654327 404.814545,391.050842 403.793060,395.602448 
	C400.718231,394.993591 400.380676,393.236603 400.450226,391.124725 
	C400.558533,387.833588 400.508636,384.535278 400.693878,381.249481 
	C400.784698,379.638733 399.267120,376.886017 401.866241,376.701141 
	C404.943359,376.482239 404.319214,379.444031 404.294647,381.922485 
z"/>
<path fill="#000000" opacity="1.000000" stroke="none" 
	d="
M253.463623,317.921356 
	C256.202698,317.522095 257.799957,318.421967 258.070831,320.876740 
	C258.232635,322.342957 257.360840,323.445831 256.001770,323.961975 
	C254.688492,324.460785 253.286942,324.463654 252.355392,323.232941 
	C250.913132,321.327423 251.148636,319.536591 253.463623,317.921356 
z"/>
<path fill="#000000" opacity="1.000000" stroke="none" 
	d="
M348.606323,385.308563 
	C352.267334,383.565094 352.267334,383.565094 355.721283,387.120544 
	C355.437225,388.987885 354.097015,390.272430 352.421844,389.816772 
	C350.519226,389.299225 348.241943,388.424469 348.606323,385.308563 
z"/>
</svg>